# xmcd
#
# Track frame offsets:
# 150
# 16965
# 35974
# 47602
# 61479
# 80092
# 90297
# 105689
# 119590
# 129205
# 150084
# 163222
# 181190
# 195223
# 210979
# 222892
# 243506
# 259212
#
# Disc length: 3670 seconds
#
#
# Revision: 0
# Processed by: cddbd v1.5.1PL0 Copyright (c) Steve Scherf et al.
# Submitted via: FreeRIP 2.90 
#
DISCID=eb0e5412
DTITLE=Forró
DYEAR=2005
DGENRE=Forró
TTITLE0=Sem Ferrolho e Sem Tramela
TTITLE1=Espumas ao Vento
TTITLE2=Eu Quero Meu Amor
TTITLE3=Jogo de Cintura
TTITLE4=José
TTITLE5=Forró de Primeira
TTITLE6=Olhar de Passarinho
TTITLE7=Meu Cenário
TTITLE8=Pagode Russo
TTITLE9=Respeita Januário
TTITLE10=Sanfoninha Choradeira
TTITLE11=Forró Nº 1
TTITLE12=Minha Verdade
TTITLE13=Nhanhar
TTITLE14=Selva de Feras
TTITLE15=Tudo Deu em Nada
TTITLE16=Me Usa
TTITLE17=Feira de Mangaio
EXTD=
EXTT0=Flávio José
EXTT1=Flávio José
EXTT2=Elba Ramalho
EXTT3=Flávio José
EXTT4=
EXTT5=Hélder Vasconcelos e Heleno dos 8 Baixos
EXTT6=Petrúcio Amorim
EXTT7=Circuladô de Fulô
EXTT8=Zeca Baleiro
EXTT9=Luiz Gonzaga
EXTT10=Luiz Gonzaga
EXTT11=Luiz Gonzaga
EXTT12=
EXTT13=Mastruz com Leite
EXTT14=Baiano e os Novos Caetanos
EXTT15=Limão com Mel
EXTT16=Banda Magníficos
EXTT17=Sivuca
PLAYORDER=
